<mxfile host="65bd71144e">
    <diagram id="NBhzCk3v7oiCukQjRLAP" name="Page-1">
        <mxGraphModel dx="854" dy="688" grid="1" gridSize="10" guides="1" tooltips="1" connect="1" arrows="1" fold="1" page="1" pageScale="1" pageWidth="1100" pageHeight="1700" math="0" shadow="0">
            <root>
                <mxCell id="0"/>
                <mxCell id="1" parent="0"/>
                <mxCell id="4" value="" style="edgeStyle=none;html=1;" edge="1" parent="1" source="2" target="3">
                    <mxGeometry relative="1" as="geometry"/>
                </mxCell>
                <mxCell id="2" value="INICIO" style="ellipse;whiteSpace=wrap;html=1;" vertex="1" parent="1">
                    <mxGeometry x="280" y="40" width="120" height="80" as="geometry"/>
                </mxCell>
                <mxCell id="5" style="edgeStyle=none;html=1;entryX=0;entryY=0.5;entryDx=0;entryDy=0;" edge="1" parent="1" source="3" target="19">
                    <mxGeometry relative="1" as="geometry">
                        <mxPoint x="240" y="110" as="targetPoint"/>
                        <Array as="points">
                            <mxPoint x="200" y="261"/>
                            <mxPoint x="200" y="560"/>
                        </Array>
                    </mxGeometry>
                </mxCell>
                <mxCell id="8" style="edgeStyle=none;html=1;" edge="1" parent="1" source="3" target="9">
                    <mxGeometry relative="1" as="geometry">
                        <mxPoint x="560" y="260.5" as="targetPoint"/>
                    </mxGeometry>
                </mxCell>
                <mxCell id="3" value="luz = &quot;Encendida&quot;" style="rhombus;whiteSpace=wrap;html=1;" vertex="1" parent="1">
                    <mxGeometry x="269" y="200" width="141" height="121" as="geometry"/>
                </mxCell>
                <mxCell id="6" value="SI" style="text;html=1;strokeColor=default;fillColor=none;align=center;verticalAlign=middle;whiteSpace=wrap;rounded=0;strokeWidth=2;" vertex="1" parent="1">
                    <mxGeometry x="180" y="200" width="60" height="30" as="geometry"/>
                </mxCell>
                <mxCell id="7" value="NO" style="text;html=1;strokeColor=default;fillColor=none;align=center;verticalAlign=middle;whiteSpace=wrap;rounded=0;strokeWidth=2;" vertex="1" parent="1">
                    <mxGeometry x="430" y="200" width="60" height="30" as="geometry"/>
                </mxCell>
                <mxCell id="12" value="" style="edgeStyle=none;html=1;" edge="1" parent="1" source="9">
                    <mxGeometry relative="1" as="geometry">
                        <mxPoint x="610" y="350" as="targetPoint"/>
                    </mxGeometry>
                </mxCell>
                <mxCell id="9" value="Buscar Interruiptor" style="rounded=0;whiteSpace=wrap;html=1;strokeColor=default;strokeWidth=2;fillColor=none;" vertex="1" parent="1">
                    <mxGeometry x="550" y="230" width="120" height="60" as="geometry"/>
                </mxCell>
                <mxCell id="15" style="edgeStyle=none;html=1;entryX=1;entryY=0.5;entryDx=0;entryDy=0;" edge="1" parent="1" source="14" target="9">
                    <mxGeometry relative="1" as="geometry">
                        <Array as="points">
                            <mxPoint x="770" y="410"/>
                            <mxPoint x="770" y="260"/>
                        </Array>
                    </mxGeometry>
                </mxCell>
                <mxCell id="18" style="edgeStyle=none;html=1;" edge="1" parent="1" source="14">
                    <mxGeometry relative="1" as="geometry">
                        <mxPoint x="340" y="520" as="targetPoint"/>
                        <Array as="points">
                            <mxPoint x="340" y="410"/>
                        </Array>
                    </mxGeometry>
                </mxCell>
                <mxCell id="14" value="Presionar Interruptor" style="rhombus;whiteSpace=wrap;html=1;strokeColor=default;strokeWidth=2;fillColor=none;" vertex="1" parent="1">
                    <mxGeometry x="530" y="350" width="160" height="120" as="geometry"/>
                </mxCell>
                <mxCell id="16" value="NO" style="text;html=1;strokeColor=default;fillColor=none;align=center;verticalAlign=middle;whiteSpace=wrap;rounded=0;strokeWidth=2;" vertex="1" parent="1">
                    <mxGeometry x="790" y="290" width="60" height="30" as="geometry"/>
                </mxCell>
                <mxCell id="17" value="SI" style="text;html=1;strokeColor=default;fillColor=none;align=center;verticalAlign=middle;whiteSpace=wrap;rounded=0;strokeWidth=2;" vertex="1" parent="1">
                    <mxGeometry x="440" y="360" width="60" height="30" as="geometry"/>
                </mxCell>
                <mxCell id="19" value="FIN" style="ellipse;whiteSpace=wrap;html=1;strokeColor=default;strokeWidth=2;fillColor=none;" vertex="1" parent="1">
                    <mxGeometry x="280" y="520" width="120" height="80" as="geometry"/>
                </mxCell>
            </root>
        </mxGraphModel>
    </diagram>
</mxfile>